HIERARCHY
ROOT Hips
{
	OFFSET 0.000000 0.000000 0.000000
	CHANNELS 6 Xposition Yposition Zposition Zrotation Yrotation Xrotation 
	JOINT LHipJoint
	{
		OFFSET 0.000000 0.000000 0.000000
		CHANNELS 3 Zrotation Yrotation Xrotation
		JOINT LeftUpLeg
		{
			OFFSET 1.363060 -1.794630 0.839290
			CHANNELS 3 Zrotation Yrotation Xrotation
			JOINT LeftLeg
			{
				OFFSET 2.448110 -6.726130 0.000000
				CHANNELS 3 Zrotation Yrotation Xrotation
				JOINT LeftFoot
				{
					OFFSET 2.562200 -7.039590 0.000000
					CHANNELS 3 Zrotation Yrotation Xrotation
					JOINT LeftToeBase
					{
						OFFSET 0.157640 -0.433110 2.322550
						CHANNELS 3 Zrotation Yrotation Xrotation
						End Site
						{
							OFFSET 0.000000 0.000000 0.000000
						}
					}
				}
			}
		}
	}
	JOINT RHipJoint
	{
		OFFSET 0.000000 0.000000 0.000000
		CHANNELS 3 Zrotation Yrotation Xrotation
		JOINT RightUpLeg
		{
			OFFSET -1.305520 -1.794630 0.839290
			CHANNELS 3 Zrotation Yrotation Xrotation
			JOINT RightLeg
			{
				OFFSET -2.542530 -6.985550 0.000000
				CHANNELS 3 Zrotation Yrotation Xrotation
				JOINT RightFoot
				{
					OFFSET -2.568260 -7.056230 0.000000
					CHANNELS 3 Zrotation Yrotation Xrotation
					JOINT RightToeBase
					{
						OFFSET -0.164730 -0.452590 2.363150
						CHANNELS 3 Zrotation Yrotation Xrotation
						End Site
						{
							OFFSET 0.000000 0.000000 0.000000
						}
					}
				}
			}
		}
	}
	JOINT LowerBack
	{
		OFFSET 0.000000 0.000000 0.000000
		CHANNELS 3 Zrotation Yrotation Xrotation
		JOINT Spine
		{
			OFFSET 0.028270 2.035590 -0.193380
			CHANNELS 3 Zrotation Yrotation Xrotation
			JOINT Spine1
			{
				OFFSET 0.056720 2.048850 -0.042750
				CHANNELS 3 Zrotation Yrotation Xrotation
				JOINT Neck
				{
					OFFSET 0.000000 0.000000 0.000000
					CHANNELS 3 Zrotation Yrotation Xrotation
					JOINT Neck1
					{
						OFFSET -0.054170 1.746240 0.172020
						CHANNELS 3 Zrotation Yrotation Xrotation
						JOINT Head
						{
							OFFSET 0.104070 1.761360 -0.123970
							CHANNELS 3 Zrotation Yrotation Xrotation
							End Site
							{
								OFFSET 0.000000 0.000000 0.000000
							}
						}
					}
				}
				JOINT LeftShoulder
				{
					OFFSET 0.000000 0.000000 0.000000
					CHANNELS 3 Zrotation Yrotation Xrotation
					JOINT LeftArm
					{
						OFFSET 3.362410 1.200890 -0.311210
						CHANNELS 3 Zrotation Yrotation Xrotation
						JOINT LeftForeArm
						{
							OFFSET 4.983000 -0.000000 -0.000000
							CHANNELS 3 Zrotation Yrotation Xrotation
							JOINT LeftHand
							{
								OFFSET 3.483560 -0.000000 -0.000000
								CHANNELS 3 Zrotation Yrotation Xrotation
								JOINT LeftFingerBase
								{
									OFFSET 0.000000 0.000000 0.000000
									CHANNELS 3 Zrotation Yrotation Xrotation
									JOINT LeftHandIndex1
									{
										OFFSET 0.715260 -0.000000 -0.000000
										CHANNELS 3 Zrotation Yrotation Xrotation
										End Site
										{
											OFFSET 0.000000 0.000000 0.000000
										}
									}
								}
								JOINT LThumb
								{
									OFFSET 0.000000 0.000000 0.000000
									CHANNELS 3 Zrotation Yrotation Xrotation
									End Site
									{
										OFFSET 0.000000 0.000000 0.000000
									}
								}
							}
						}
					}
				}
				JOINT RightShoulder
				{
					OFFSET 0.000000 0.000000 0.000000
					CHANNELS 3 Zrotation Yrotation Xrotation
					JOINT RightArm
					{
						OFFSET -3.136600 1.374050 -0.404650
						CHANNELS 3 Zrotation Yrotation Xrotation
						JOINT RightForeArm
						{
							OFFSET -5.241900 -0.000000 -0.000000
							CHANNELS 3 Zrotation Yrotation Xrotation
							JOINT RightHand
							{
								OFFSET -3.444170 -0.000000 -0.000000
								CHANNELS 3 Zrotation Yrotation Xrotation
								JOINT RightFingerBase
								{
									OFFSET 0.000000 0.000000 0.000000
									CHANNELS 3 Zrotation Yrotation Xrotation
									JOINT RightHandIndex1
									{
										OFFSET -0.622530 -0.000000 -0.000000
										CHANNELS 3 Zrotation Yrotation Xrotation
										End Site
										{
											OFFSET 0.000000 0.000000 0.000000
										}
									}
								}
								JOINT RThumb
								{
									OFFSET 0.000000 0.000000 0.000000
									CHANNELS 3 Zrotation Yrotation Xrotation
									End Site
									{
										OFFSET 0.000000 0.000000 0.000000
									}
								}
							}
						}
					}
				}
			}
		}
	}
}
MOTION
Frames: 10
Frame Time: 0.008333
1.068216 16.879894 -1.716118 -177.432450 6.404408 -174.176615 6.820945 0.182890 -1.977084 -16.032360 -8.094877 -36.666094 19.537131 22.199755 89.284642 -1.453630 21.847610 6.786463 0.013400 -0.748300 -2.056600 -12.109338 -2.613571 -3.647528 40.117919 5.579230 3.963601 -2.542058 -11.301998 36.059127 -0.560947 -10.858229 -13.161202 -3.445200 11.383100 -33.583100 5.435453 4.779358 4.114677 -0.163731 5.854955 -3.610032 -3.454655 3.246124 7.768157 -2.702964 -0.828924 -22.386066 5.824506 -6.067816 15.840317 -1.332800 -2.976500 29.390100 11.282103 4.022489 -0.933931 -73.015179 31.979896 58.616626 119.896995 -57.870692 -81.582656 1.418413 -0.454318 17.299310 15.119417 5.579624 1.362500 -7.125000 0.000000 0.000000 -10.891000 35.592400 2.555600 -11.106513 -0.395141 0.222237 89.424117 -6.889906 48.302456 -113.374647 55.273812 -71.219105 0.210227 -1.902917 7.089733 -15.097932 -4.176835 0.621900 7.125000 0.000000 0.000000 8.873700 -32.214300 2.806500 
1.075533 16.982552 -2.134817 -177.408992 6.193599 -173.949405 6.855814 0.168283 -1.907144 -15.858796 -9.191629 -37.776712 18.374507 22.296159 86.023743 -1.486414 22.093716 6.735968 0.019100 -0.892700 -2.453700 -12.095210 -2.664263 -3.833289 39.778305 4.351452 5.537129 -2.253385 -10.673451 34.446331 -0.445912 -9.872421 -10.482935 -3.553300 11.540900 -34.126700 5.415640 5.160101 3.764756 -0.235070 6.321208 -3.650702 -3.491487 3.480117 7.703112 -2.764131 -1.314539 -22.223312 5.968314 -6.931507 15.937715 -1.252600 -3.266500 29.626900 11.183159 4.115916 -0.989264 -71.887268 32.333510 59.496160 120.940333 -57.596629 -82.507276 1.454134 -0.501412 17.375174 15.185221 5.174310 1.274200 -7.125000 0.000000 0.000000 -10.818100 35.216500 2.638700 -11.153393 -0.321271 0.199774 89.223670 -6.519514 49.103378 -114.568414 54.904799 -72.485525 0.203170 -1.853752 7.019540 -14.876645 -3.987546 0.574400 7.125000 0.000000 0.000000 9.048600 -32.067700 2.895300 
1.082420 17.090051 -2.560403 -177.431064 5.911366 -173.713714 6.887322 0.155667 -1.831976 -15.754833 -10.268053 -38.662454 17.064163 22.304304 82.374773 -1.497139 22.274895 6.789660 0.024000 -0.999300 -2.746800 -12.081556 -2.709455 -4.020514 39.358015 3.125620 7.123443 -1.949937 -10.002171 32.694225 -0.328605 -9.026090 -7.503456 -3.607600 11.619000 -34.397200 5.360632 5.486886 3.363213 -0.308929 6.715461 -3.688773 -3.542548 3.678370 7.686961 -2.822065 -1.781985 -22.114575 6.112311 -7.748317 16.018877 -1.162300 -3.538200 29.858900 11.081027 4.210516 -1.040814 -70.785969 32.674140 60.283964 121.956493 -57.325610 -83.406040 1.487861 -0.547761 17.483794 15.231333 4.796846 1.190400 -7.125000 0.000000 0.000000 -10.765000 34.866400 2.718600 -11.200173 -0.256856 0.183448 88.966414 -6.225919 49.896895 -115.711547 54.552234 -73.691183 0.190231 -1.801160 7.025911 -14.627898 -3.734786 0.510900 7.125000 0.000000 0.000000 9.241200 -31.859500 3.005300 
1.089737 17.199487 -2.991800 -177.501638 5.576239 -173.486125 6.915488 0.144197 -1.752253 -15.729301 -11.297036 -39.310384 15.625097 22.198320 78.376865 -1.474252 22.327589 6.971390 0.027600 -1.072600 -2.948500 -12.069039 -2.745867 -4.207494 38.877247 1.941074 8.746151 -1.639283 -9.293747 30.828211 -0.225319 -8.395581 -4.243501 -3.595600 11.601900 -34.337900 5.263776 5.762624 2.942763 -0.387183 7.046384 -3.726060 -3.617376 3.846418 7.687628 -2.863714 -2.225264 -22.013171 6.250921 -8.520865 16.084120 -1.072200 -3.791200 30.041600 10.977528 4.301919 -1.088992 -69.693114 33.028575 60.989586 122.963729 -57.052846 -84.295534 1.518233 -0.593220 17.584671 15.242382 4.453710 1.112200 -7.125000 0.000000 0.000000 -10.744200 34.549600 2.797300 -11.246309 -0.200571 0.173372 88.663412 -6.013383 50.699989 -116.783175 54.219398 -74.812624 0.173378 -1.748914 7.073844 -14.384690 -3.444936 0.439500 7.125000 0.000000 0.000000 9.426700 -31.613400 3.123600 
1.097270 17.309139 -3.428685 -177.633012 5.191891 -173.261666 6.940155 0.130786 -1.670529 -15.792951 -12.281779 -39.718838 14.078712 21.956630 74.067871 -1.406904 22.189960 7.299784 0.029400 -1.107300 -3.044000 -12.059118 -2.770541 -4.391623 38.355552 0.858011 10.399849 -1.331418 -8.563956 28.899051 -0.157418 -8.075724 -0.771619 -3.494700 11.455800 -33.832800 5.107787 5.990784 2.479481 -0.468191 7.317333 -3.760108 -3.694073 3.983782 7.723679 -2.904267 -2.648522 -21.925714 6.378904 -9.245870 16.137709 -0.986600 -4.027400 30.181100 10.874133 4.390806 -1.133062 -68.626435 33.389765 61.620912 123.932892 -56.787722 -85.146232 1.548170 -0.637498 17.637269 15.261562 4.101610 1.032800 -7.125000 0.000000 0.000000 -10.715800 34.224300 2.875700 -11.290093 -0.155931 0.168991 88.312981 -5.883943 51.506402 -117.793027 53.904571 -75.863009 0.153137 -1.697776 7.151464 -14.166722 -3.132534 0.364800 7.125000 0.000000 0.000000 9.590900 -31.343800 3.242400 
1.105555 17.416208 -3.868583 -177.812246 4.783979 -173.041005 6.961178 0.114808 -1.587802 -15.933514 -13.202073 -39.890585 12.454778 21.559249 69.498172 -1.283880 21.788284 7.792534 0.031000 -1.137400 -3.127000 -12.051934 -2.781377 -4.568070 37.830480 -0.073392 12.060530 -1.041080 -7.842102 26.993276 -0.143974 -8.086123 2.827647 -3.315200 11.188600 -32.918800 4.897412 6.179179 2.006357 -0.552766 7.543858 -3.794685 -3.777038 4.098879 7.756328 -2.945983 -3.050956 -21.815927 6.498019 -9.931569 16.183545 -0.903800 -4.252900 30.267300 10.771036 4.474013 -1.174717 -67.562416 33.768685 62.203840 124.883969 -56.523619 -85.977911 1.572296 -0.679775 17.659763 15.217856 3.802583 0.962500 -7.125000 0.000000 0.000000 -10.741700 33.951000 2.955300 -11.331428 -0.117069 0.170039 87.925307 -5.852300 52.300468 -118.762783 53.601009 -76.865739 0.133080 -1.644805 7.214978 -13.918613 -2.806673 0.288700 7.125000 0.000000 0.000000 9.777500 -31.062500 3.374000 
1.114594 17.519188 -4.311493 -178.029550 4.380063 -172.813291 6.977941 0.094347 -1.506994 -16.131448 -14.046485 -39.842408 10.787956 20.992676 64.723635 -1.101813 21.059340 8.421993 0.033500 -1.181600 -3.248500 -12.047461 -2.779039 -4.731705 37.337362 -0.808417 13.674099 -0.784393 -7.168225 25.223293 -0.197425 -8.417265 6.459493 -3.053300 10.780900 -31.544500 4.634568 6.337243 1.503886 -0.638715 7.737269 -3.828939 -3.857818 4.196993 7.797953 -2.963098 -3.416631 -21.697858 6.598519 -10.572962 16.229342 -0.846900 -4.458500 30.321800 10.672339 4.551055 -1.214379 -66.512773 34.168868 62.745954 125.815682 -56.261239 -86.786123 1.594476 -0.719618 17.629740 15.164797 3.522450 0.897000 -7.125000 0.000000 0.000000 -10.776100 33.696800 3.032600 -11.365698 -0.087846 0.174633 87.502212 -5.925129 53.084570 -119.701364 53.305668 -77.834237 0.111987 -1.592353 7.274598 -13.690684 -2.482175 0.215800 7.125000 0.000000 0.000000 9.948500 -30.782600 3.502400 
1.124387 17.616357 -4.756018 -178.256979 3.993088 -172.572900 6.989390 0.069199 -1.430151 -16.348375 -14.808374 -39.596228 9.119573 20.252300 59.811491 -0.869426 19.980038 9.120452 0.038300 -1.263300 -3.473700 -12.045744 -2.766014 -4.877874 36.919011 -1.336675 15.161522 -0.579272 -6.593759 23.727926 -0.321143 -9.020845 10.036564 -2.711200 10.212100 -29.666400 4.335249 6.469203 0.981402 -0.721812 7.902995 -3.862981 -3.910436 4.278677 7.839906 -3.013785 -3.768807 -21.561127 6.699029 -11.167919 16.270034 -0.775100 -4.660100 30.341900 10.575643 4.624095 -1.250887 -65.503455 34.567691 63.255052 126.719892 -56.001917 -87.563978 1.612268 -0.753915 17.615463 15.085203 3.329327 0.850400 -7.125000 0.000000 0.000000 -10.839000 33.525400 3.096600 -11.395230 -0.062352 0.183582 87.042998 -6.107799 53.845115 -120.637943 53.010751 -78.800688 0.091682 -1.537404 7.281564 -13.441161 -2.154429 0.144900 7.125000 0.000000 0.000000 10.136600 -30.502200 3.639600 
1.134824 17.707393 -5.201619 -178.490841 3.643946 -172.308472 6.994998 0.040293 -1.359315 -16.578311 -15.476101 -39.183084 7.493581 19.343987 54.835840 -0.601990 18.560684 9.824683 0.046600 -1.392900 -3.830600 -12.043647 -2.746729 -5.002451 36.577569 -1.666441 16.428744 -0.442797 -6.168949 22.642938 -0.512140 -9.853598 13.500387 -2.303900 9.472400 -27.284500 3.997818 6.580942 0.426567 -0.800975 8.048253 -3.894836 -3.929385 4.347022 7.897182 -3.083586 -4.091422 -21.419619 6.801279 -11.724305 16.323035 -0.695900 -4.858200 30.391400 10.481581 4.696310 -1.283966 -64.554625 34.934689 63.734024 127.570453 -55.753069 -88.288643 1.627329 -0.782523 17.576478 15.005962 3.192815 0.817200 -7.125000 0.000000 0.000000 -10.905200 33.408000 3.147700 -11.419533 -0.040648 0.195499 86.553580 -6.380510 54.575328 -121.563172 52.720055 -79.755379 0.071891 -1.480842 7.249206 -13.178500 -1.826525 0.077100 7.125000 0.000000 0.000000 10.335100 -30.223800 3.782900 
1.145478 17.789820 -5.646790 -178.679611 3.340561 -172.023359 6.993384 0.008198 -1.297466 -16.766315 -16.032334 -38.637874 5.961233 18.288406 49.895741 -0.324781 16.872040 10.454640 0.060500 -1.587700 -4.367400 -12.042880 -2.726739 -5.099783 36.367418 -1.820525 17.401525 -0.383661 -5.933289 22.070864 -0.752420 -10.830550 16.684303 -1.911600 8.679600 -24.798000 3.674349 6.678280 -0.144105 -0.870061 8.176417 -3.924752 -3.908997 4.403839 7.969678 -3.183055 -4.391009 -21.306962 6.901084 -12.226900 16.373125 -0.608800 -5.047200 30.470500 10.393041 4.765038 -1.313525 -63.697095 35.254400 64.172837 128.376143 -55.510870 -88.969121 1.637757 -0.805268 17.618053 14.897286 3.153647 0.804200 -7.125000 0.000000 0.000000 -11.003200 33.381600 3.184000 -11.437350 -0.022490 0.208680 86.043066 -6.725611 55.253220 -122.445868 52.442550 -80.665733 0.051095 -1.423769 7.233243 -12.913175 -1.489574 0.010100 7.125000 0.000000 0.000000 10.534400 -29.937300 3.931400 
